# xmcd
#
# Track frame offsets: 
#        150
#        13770
#        35106
#        48452
#        68498
#        84510
#        97495
#        112166
#        124162
#        141908
#        155133
#        173093
#        191702
#        212342
#        229311
#        242835
#        255859
#        272843
#        299740
#        311131
#
# Disc length: 4317 seconds
#
# Revision: 0
# Processed by: cddbd v1.5.2PL0 Copyright (c) Steve Scherf et al.
# Submitted via: ExactAudioCopy v1.0b4
#
DISCID=3710db14
DTITLE=Taj Mahal - The Collection (DLP)
DYEAR=1987
DGENRE=Blues
TTITLE0=Fishin' Blues
TTITLE1=Leaving Trunk
TTITLE2=Six Days On The Road
TTITLE3=Dust My Broom
TTITLE4=Going Up To The Country
TTITLE5=Candy Man
TTITLE6=Staggerlee
TTITLE7=Diving Duck Blues
TTITLE8=Clara (St Kitts Woman)
TTITLE9=Statesboro Blues
TTITLE10=A Lot Of Love
TTITLE11=Take A Giant Step
TTITLE12=Further Down The Road
TTITLE13=Little Red Hen
TTITLE14=E-Z Rider
TTITLE15=Texas Woman Blues
TTITLE16=A Free Song
TTITLE17=Oh Mama, Don't You Know
TTITLE18=Railroad Bill
TTITLE19=Everybody's Got To Change Sometime
EXTD=
EXTT0=
EXTT1=
EXTT2=
EXTT3=
EXTT4=
EXTT5=
EXTT6=
EXTT7=
EXTT8=
EXTT9=
EXTT10=
EXTT11=
EXTT12=
EXTT13=
EXTT14=
EXTT15=
EXTT16=
EXTT17=
EXTT18=
EXTT19=
PLAYORDER=
